<?xml version="1.0" encoding="UTF-8"?>
<svg width="24px" height="21px" viewBox="0 0 24 21" version="1.1" xmlns="http://www.w3.org/2000/svg" xmlns:xlink="http://www.w3.org/1999/xlink">
    <!-- Generator: Sketch 51.2 (57519) - http://www.bohemiancoding.com/sketch -->
    <title>ICON Copy 3</title>
    <desc>Created with Sketch.</desc>
    <defs></defs>
    <g id="Page-1" stroke="none" stroke-width="1" fill="none" fill-rule="evenodd">
        <g id="Unanswered" transform="translate(-425.000000, -115.000000)">
            <g id="Icon-/-Content-Tree-/-Question-/-Init." transform="translate(425.000000, 113.000000)">
                <g id="Question-Icon" transform="translate(0.000000, 2.000000)">
                    <path d="M12.0422723,0.0020577308 C5.79971956,-0.112355196 0,4.56087067 0,9.89921849 C2.0445179e-16,12.8205144 0.869072325,14.5397784 2.56673028,16.3525469 C3.03848748,19.1189321 3.06209331,20.6417401 3.63516245,20.9468497 C4.20823158,21.2519593 4.90786814,20.2018852 6.1424027,18.861869 C17.5790747,23.0001257 24.4440533,15.4583833 23.9776576,9.7578146 C23.5112618,4.05724593 18.284825,0.116470657 12.0422723,0.0020577308 Z" id="Shape" fill="#AB649C" transform="translate(12.000000, 10.500000) scale(-1, 1) translate(-12.000000, -10.500000) "></path>
                    <rect id="Rectangle-9" fill="#FFFFFF" x="7" y="9" width="2" height="2"></rect>
                    <rect id="Rectangle-9" fill="#FFFFFF" x="11" y="9" width="2" height="2"></rect>
                    <rect id="Rectangle-9" fill="#FFFFFF" x="15" y="9" width="2" height="2"></rect>
                </g>
            </g>
        </g>
    </g>
</svg>