<?xml version="1.0" encoding="UTF-8"?>
<svg width="24px" height="21px" viewBox="0 0 24 21" version="1.1" xmlns="http://www.w3.org/2000/svg" xmlns:xlink="http://www.w3.org/1999/xlink">
    <!-- Generator: Sketch 52.2 (67145) - http://www.bohemiancoding.com/sketch -->
    <title>ICON Copy 6</title>
    <desc>Created with Sketch.</desc>
    <g id="Open-Closed-flow" stroke="none" stroke-width="1" fill="none" fill-rule="evenodd">
        <g id="list-item-copy-6" transform="translate(-15.000000, -17.000000)" fill="#38556A" fill-rule="nonzero">
            <g id="Icons-/-24-x-24-/-Slideshow-/-Default" transform="translate(15.000000, 15.000000)">
                <path d="M22.9058398,4.28089409 L12,4.28089409 L12,3.18325002 C12.0196136,2.88653024 11.9108884,2.59573687 11.7017136,2.3854616 C11.4925389,2.17518634 11.2032674,2.06588914 10.9081005,2.08560594 L3.27795927,2.08560594 C2.98279239,2.06588914 2.69352089,2.17518634 2.48434611,2.3854616 C2.27517132,2.59573687 2.16644614,2.88653024 2.18605975,3.18325002 L2.18605975,4.28089409 L1.09416024,4.28089409 C0.798993354,4.26117728 0.509721858,4.37047448 0.300547072,4.58074975 C0.0913722873,4.79102501 -0.0173529009,5.08181839 0.00226071706,5.37853816 L0.00226071706,21.81675 C-0.0173529009,22.1134698 0.0913722873,22.4042631 0.300547072,22.6145384 C0.509721858,22.8248137 0.798993354,22.9341109 1.09416024,22.9143941 L22.9058398,22.9143941 C23.2010066,22.9341109 23.4902781,22.8248137 23.6994529,22.6145384 C23.9086277,22.4042631 24.0173529,22.1134698 23.9977393,21.81675 L23.9977393,5.37853816 C24.0173529,5.08181839 23.9086277,4.79102501 23.6994529,4.58074975 C23.4902781,4.37047448 23.2010066,4.26117728 22.9058398,4.28089409 Z M9,17.7083333 L9,9.375 L16,13.5669192 L9,17.7083333 Z" id="Shape"></path>
            </g>
        </g>
    </g>
</svg>